:FULLY-SPECIFIED
:FORCE-ALL-JOINTS-BE-3DOF
:DEGREES
374
root 6.19653 16.4901 -15.8899 9.1628 -16.9933 -5.91855
lfemur -45.011 22.6881 -12.8792
ltibia 70.3859 0 0
lfoot -11.0643 -1.98575 0
ltoes 13.2997 0 0
rfemur -25.8093 -4.76932 31.1028
rtibia 43.579 0 0
rfoot -20.3514 0.42218 0
rtoes 18.4824 0 0
lowerback 5.30071 1.5149 3.24494
upperback 2.62697 2.15996 1.00163
thorax -0.185745 1.09666 -0.903424
lowerneck -7.9283 -1.2459 2.92176
upperneck -0.600023 -1.97442 2.15723
head 1.13511 -0.948977 0.114522
lclavicle 5.26748e-14 6.34828e-15 0
lhumerus -40.4938 -23.0645 95.1876
lradius 56.5796 0 0
lwrist 19.4915 0 0
lhand -21.1724 2.96703 0
lfingers 7.12502 0 0
lthumb 5.20786 32.8816 0
rclavicle 5.26748e-14 6.34828e-15 0
rhumerus -37.5773 12.465 -93.3515
rradius 61.5711 0 0
rwrist 9.2452 0 0
rhand -9.0843 -19.4224 0
rfingers 7.12502 0 0
rthumb 16.8649 -768.703 0
375
root 6.14874 16.4847 -15.7482 8.96732 -17.6355 -5.81681
lfemur -44.5215 22.0809 -12.7492
ltibia 69.446 0 0
lfoot -10.981 -1.41664 0
ltoes 12.8641 0 0
rfemur -26.088 -5.39307 30.9496
rtibia 44.8713 0 0
rfoot -19.4764 0.188068 0
rtoes 19.2237 0 0
lowerback 5.2831 1.61614 3.13228
upperback 2.59124 2.28845 0.906532
thorax -0.208851 1.1602 -0.944718
lowerneck -7.87568 -1.15103 3.05295
upperneck -0.450685 -1.85996 2.13018
head 1.17661 -0.888304 0.087586
lclavicle 5.43115e-14 6.53424e-15 0
lhumerus -40.6539 -22.9078 95.1493
lradius 56.4204 0 0
lwrist 19.5026 0 0
lhand -21.0264 3.00737 0
lfingers 7.12502 0 0
lthumb 5.34878 32.9171 0
rclavicle 5.43115e-14 6.53424e-15 0
rhumerus -37.8302 12.4061 -93.3204
rradius 61.5861 0 0
rwrist 9.2026 0 0
rhand -9.38171 -19.3784 0
rfingers 7.12502 0 0
rthumb 16.5782 -768.677 0
376
root 6.10094 16.4794 -15.6064 8.77183 -18.2776 -5.71507
lfemur -44.0319 21.4736 -12.6192
ltibia 68.5062 0 0
lfoot -10.8976 -0.847535 0
ltoes 12.4284 0 0
rfemur -26.3668 -6.01681 30.7965
rtibia 46.1636 0 0
rfoot -18.6013 -0.046044 0
rtoes 19.9651 0 0
lowerback 5.26549 1.71738 3.01963
upperback 2.55551 2.41695 0.811438
thorax -0.231957 1.22374 -0.986012
lowerneck -7.82305 -1.05616 3.18413
upperneck -0.301348 -1.74551 2.10313
head 1.21812 -0.827631 0.0606495
lclavicle 5.59483e-14 6.7202e-15 0
lhumerus -40.814 -22.7512 95.1109
lradius 56.2611 0 0
lwrist 19.5136 0 0
lhand -20.8804 3.0477 0
lfingers 7.12502 0 0
lthumb 5.48969 32.9525 0
rclavicle 5.59483e-14 6.7202e-15 0
rhumerus -38.0832 12.3471 -93.2894
rradius 61.601 0 0
rwrist 9.16 0 0
rhand -9.67913 -19.3345 0
rfingers 7.12502 0 0
rthumb 16.2915 -768.651 0
377
root 6.05314 16.4741 -15.4647 8.57635 -18.9197 -5.61333
lfemur -43.5423 20.8663 -12.4892
ltibia 67.5664 0 0
lfoot -10.8143 -0.278426 0
ltoes 11.9928 0 0
rfemur -26.6455 -6.64055 30.6433
rtibia 47.4559 0 0
rfoot -17.7262 -0.280156 0
rtoes 20.7064 0 0
lowerback 5.24788 1.81861 2.90697
upperback 2.51978 2.54544 0.716345
thorax -0.255064 1.28728 -1.02731
lowerneck -7.77042 -0.961293 3.31531
upperneck -0.15201 -1.63106 2.07607
head 1.25962 -0.766958 0.0337129
lclavicle 5.75851e-14 6.90616e-15 0
lhumerus -40.9741 -22.5946 95.0725
lradius 56.1019 0 0
lwrist 19.5247 0 0
lhand -20.7344 3.08804 0
lfingers 7.12502 0 0
lthumb 5.63061 32.988 0
rclavicle 5.75851e-14 6.90616e-15 0
rhumerus -38.3362 12.2882 -93.2583
rradius 61.616 0 0
rwrist 9.1174 0 0
rhand -9.97655 -19.2906 0
rfingers 7.12502 0 0
rthumb 16.0048 -768.625 0
378
root 6.00534 16.4687 -15.3229 8.38087 -19.5619 -5.51159
lfemur -43.0527 20.259 -12.3592
ltibia 66.6265 0 0
lfoot -10.731 0.290682 0
ltoes 11.5571 0 0
rfemur -26.9242 -7.26429 30.4902
rtibia 48.7482 0 0
rfoot -16.8512 -0.514268 0
rtoes 21.4478 0 0
lowerback 5.23027 1.91985 2.79431
upperback 2.48405 2.67394 0.621251
thorax -0.27817 1.35082 -1.0686
lowerneck -7.71779 -0.866423 3.44649
upperneck -0.00267213 -1.5166 2.04902
head 1.30113 -0.706285 0.00677642
lclavicle 5.92219e-14 7.09212e-15 0
lhumerus -41.1342 -22.4379 95.0342
lradius 55.9426 0 0
lwrist 19.5357 0 0
lhand -20.5884 3.12838 0
lfingers 7.12502 0 0
lthumb 5.77153 33.0235 0
rclavicle 5.92219e-14 7.09212e-15 0
rhumerus -38.5892 12.2292 -93.2273
rradius 61.631 0 0
rwrist 9.0748 0 0
rhand -10.274 -19.2466 0
rfingers 7.12502 0 0
rthumb 15.7181 -768.599 0
379
root 5.95755 16.4634 -15.1812 8.18539 -20.204 -5.40985
lfemur -42.5632 19.6518 -12.2292
ltibia 65.6867 0 0
lfoot -10.6477 0.85979 0
ltoes 11.1214 0 0
rfemur -27.2029 -7.88804 30.337
rtibia 50.0405 0 0
rfoot -15.9761 -0.74838 0
rtoes 22.1891 0 0
lowerback 5.21266 2.02109 2.68165
upperback 2.44832 2.80243 0.526157
thorax -0.301276 1.41436 -1.10989
lowerneck -7.66517 -0.771554 3.57768
upperneck 0.146666 -1.40215 2.02197
head 1.34263 -0.645612 -0.0201601
lclavicle 6.08586e-14 7.27808e-15 0
lhumerus -41.2943 -22.2813 94.9958
lradius 55.7834 0 0
lwrist 19.5468 0 0
lhand -20.4425 3.16872 0
lfingers 7.12502 0 0
lthumb 5.91245 33.059 0
rclavicle 6.08586e-14 7.27808e-15 0
rhumerus -38.8421 12.1703 -93.1962
rradius 61.646 0 0
rwrist 9.0322 0 0
rhand -10.5714 -19.2027 0
rfingers 7.12502 0 0
rthumb 15.4314 -768.573 0
380
root 5.90975 16.4581 -15.0394 7.9899 -20.8461 -5.30811
lfemur -42.0736 19.0445 -12.0992
ltibia 64.7469 0 0
lfoot -10.5644 1.4289 0
ltoes 10.6858 0 0
rfemur -27.4817 -8.51178 30.1839
rtibia 51.3328 0 0
rfoot -15.1011 -0.982492 0
rtoes 22.9305 0 0
lowerback 5.19505 2.12233 2.569
upperback 2.41259 2.93093 0.431063
thorax -0.324382 1.4779 -1.15119
lowerneck -7.61254 -0.676685 3.70886
upperneck 0.296003 -1.2877 1.99492
head 1.38414 -0.584939 -0.0470966
lclavicle 6.24954e-14 7.46404e-15 0
lhumerus -41.4544 -22.1247 94.9574
lradius 55.6241 0 0
lwrist 19.5578 0 0
lhand -20.2965 3.20906 0
lfingers 7.12502 0 0
lthumb 6.05336 33.0945 0
rclavicle 6.24954e-14 7.46404e-15 0
rhumerus -39.0951 12.1113 -93.1652
rradius 61.6609 0 0
rwrist 8.9896 0 0
rhand -10.8688 -19.1588 0
rfingers 7.12502 0 0
rthumb 15.1447 -768.547 0
381
root 5.86195 16.4527 -14.8977 7.79442 -21.4883 -5.20636
lfemur -41.584 18.4372 -11.9692
ltibia 63.807 0 0
lfoot -10.481 1.99801 0
ltoes 10.2501 0 0
rfemur -27.7604 -9.13552 30.0307
rtibia 52.6251 0 0
rfoot -14.226 -1.2166 0
rtoes 23.6718 0 0
lowerback 5.17744 2.22357 2.45634
upperback 2.37686 3.05942 0.335969
thorax -0.347488 1.54144 -1.19248
lowerneck -7.55991 -0.581815 3.84004
upperneck 0.445341 -1.17324 1.96787
head 1.42565 -0.524266 -0.0740331
lclavicle 6.41322e-14 7.65001e-15 0
lhumerus -41.6145 -21.968 94.9191
lradius 55.4649 0 0
lwrist 19.5689 0 0
lhand -20.1505 3.24939 0
lfingers 7.12502 0 0
lthumb 6.19428 33.1299 0
rclavicle 6.41322e-14 7.65001e-15 0
rhumerus -39.3481 12.0523 -93.1341
rradius 61.6759 0 0
rwrist 8.94699 0 0
rhand -11.1662 -19.1148 0
rfingers 7.12502 0 0
rthumb 14.858 -768.521 0
382
root 5.81415 16.4474 -14.7559 7.59894 -22.1304 -5.10462
lfemur -41.0945 17.83 -11.8392
ltibia 62.8672 0 0
lfoot -10.3977 2.56712 0
ltoes 9.81446 0 0
rfemur -28.0391 -9.75926 29.8776
rtibia 53.9174 0 0
rfoot -13.3509 -1.45072 0
rtoes 24.4132 0 0
lowerback 5.15983 2.32481 2.34368
upperback 2.34113 3.18792 0.240875
thorax -0.370594 1.60498 -1.23377
lowerneck -7.50729 -0.486946 3.97123
upperneck 0.594679 -1.05879 1.94082
head 1.46715 -0.463593 -0.10097
lclavicle 6.5769e-14 7.83597e-15 0
lhumerus -41.7746 -21.8114 94.8807
lradius 55.3056 0 0
lwrist 19.5799 0 0
lhand -20.0045 3.28973 0
lfingers 7.12502 0 0
lthumb 6.3352 33.1654 0
rclavicle 6.5769e-14 7.83597e-15 0
rhumerus -39.6011 11.9934 -93.1031
rradius 61.6909 0 0
rwrist 8.90439 0 0
rhand -11.4636 -19.0709 0
rfingers 7.12502 0 0
rthumb 14.5713 -768.495 0
383
root 5.76636 16.442 -14.6142 7.40346 -22.7725 -5.00288
lfemur -40.6049 17.2227 -11.7092
ltibia 61.9273 0 0
lfoot -10.3144 3.13622 0
ltoes 9.37879 0 0
rfemur -28.3178 -10.383 29.7244
rtibia 55.2097 0 0
rfoot -12.4759 -1.68483 0
rtoes 25.1545 0 0
lowerback 5.14222 2.42604 2.23102
upperback 2.3054 3.31641 0.145781
thorax -0.3937 1.66852 -1.27507
lowerneck -7.45466 -0.392076 4.10241
upperneck 0.744017 -0.944335 1.91377
head 1.50866 -0.40292 -0.127906
lclavicle 6.74057e-14 8.02193e-15 0
lhumerus -41.9347 -21.6547 94.8424
lradius 55.1464 0 0
lwrist 19.591 0 0
lhand -19.8585 3.33007 0
lfingers 7.12502 0 0
lthumb 6.47612 33.2009 0
rclavicle 6.74057e-14 8.02193e-15 0
rhumerus -39.854 11.9344 -93.072
rradius 61.7059 0 0
rwrist 8.86179 0 0
rhand -11.761 -19.0269 0
rfingers 7.12502 0 0
rthumb 14.2846 -768.469 0
384
root 5.71856 16.4367 -14.4724 7.20798 -23.4147 -4.90114
lfemur -40.1153 16.6154 -11.5792
ltibia 60.9875 0 0
lfoot -10.2311 3.70533 0
ltoes 8.94313 0 0
rfemur -28.5965 -11.0067 29.5713
rtibia 56.502 0 0
rfoot -11.6008 -1.91894 0
rtoes 25.8959 0 0
lowerback 5.12461 2.52728 2.11837
upperback 2.26967 3.44491 0.0506874
thorax -0.416806 1.73206 -1.31636
lowerneck -7.40203 -0.297207 4.23359
upperneck 0.893355 -0.829881 1.88672
head 1.55016 -0.342247 -0.154843
lclavicle 6.90425e-14 8.20789e-15 0
lhumerus -42.0948 -21.4981 94.804
lradius 54.9871 0 0
lwrist 19.602 0 0
lhand -19.7125 3.37041 0
lfingers 7.12502 0 0
lthumb 6.61704 33.2364 0
rclavicle 6.90425e-14 8.20789e-15 0
rhumerus -40.107 11.8755 -93.041
rradius 61.7209 0 0
rwrist 8.81919 0 0
rhand -12.0585 -18.983 0
rfingers 7.12502 0 0
rthumb 13.9979 -768.443 0
385
root 5.67076 16.4314 -14.3306 7.01249 -24.0568 -4.7994
lfemur -39.6257 16.0081 -11.4492
ltibia 60.0477 0 0
lfoot -10.1478 4.27444 0
ltoes 8.50747 0 0
rfemur -28.8753 -11.6305 29.4181
rtibia 57.7943 0 0
rfoot -10.7257 -2.15305 0
rtoes 26.6372 0 0
lowerback 5.107 2.62852 2.00571
upperback 2.23394 3.57341 -0.0444065
thorax -0.439913 1.7956 -1.35766
lowerneck -7.3494 -0.202338 4.36477
upperneck 1.04269 -0.715427 1.85966
head 1.59167 -0.281574 -0.181779
lclavicle 7.06793e-14 8.39385e-15 0
lhumerus -42.2549 -21.3415 94.7656
lradius 54.8278 0 0
lwrist 19.613 0 0
lhand -19.5665 3.41075 0
lfingers 7.12502 0 0
lthumb 6.75795 33.2719 0
rclavicle 7.06793e-14 8.39385e-15 0
rhumerus -40.36 11.8165 -93.0099
rradius 61.7358 0 0
rwrist 8.77659 0 0
rhand -12.3559 -18.9391 0
rfingers 7.12502 0 0
rthumb 13.7111 -768.417 0
386
root 5.62296 16.426 -14.1889 6.81701 -24.6989 -4.69766
lfemur -39.1362 15.4009 -11.3192
ltibia 59.1078 0 0
lfoot -10.0644 4.84355 0
ltoes 8.07181 0 0
rfemur -29.154 -12.2542 29.265
rtibia 59.0866 0 0
rfoot -9.85068 -2.38716 0
rtoes 27.3786 0 0
lowerback 5.08939 2.72976 1.89305
upperback 2.19821 3.7019 -0.1395
thorax -0.463019 1.85914 -1.39895
lowerneck -7.29678 -0.107468 4.49596
upperneck 1.19203 -0.600974 1.83261
head 1.63318 -0.220901 -0.208716
lclavicle 7.23161e-14 8.57981e-15 0
lhumerus -42.415 -21.1848 94.7273
lradius 54.6686 0 0
lwrist 19.6241 0 0
lhand -19.4205 3.45108 0
lfingers 7.12502 0 0
lthumb 6.89887 33.3073 0
rclavicle 7.23161e-14 8.57981e-15 0
rhumerus -40.613 11.7575 -92.9789
rradius 61.7508 0 0
rwrist 8.73399 0 0
rhand -12.6533 -18.8951 0
rfingers 7.12502 0 0
rthumb 13.4244 -768.391 0
